<?xml version="1.0" encoding="UTF-8" standalone="no"?>
<svg
   xmlns:dc="http://purl.org/dc/elements/1.1/"
   xmlns:cc="http://creativecommons.org/ns#"
   xmlns:rdf="http://www.w3.org/1999/02/22-rdf-syntax-ns#"
   xmlns:svg="http://www.w3.org/2000/svg"
   xmlns="http://www.w3.org/2000/svg"
   xmlns:sodipodi="http://sodipodi.sourceforge.net/DTD/sodipodi-0.dtd"
   xmlns:inkscape="http://www.inkscape.org/namespaces/inkscape"
   width="210mm"
   height="297mm"
   viewBox="0 0 210 297"
   version="1.1"
   id="svg8"
   inkscape:export-filename="C:\Users\FR4N\Desktop\floor.png"
   inkscape:export-xdpi="95.150002"
   inkscape:export-ydpi="95.150002"
   inkscape:version="1.0.1 (3bc2e813f5, 2020-09-07)"
   sodipodi:docname="floor.svg">
  <defs
     id="defs2" />
  <sodipodi:namedview
     id="base"
     pagecolor="#ffffff"
     bordercolor="#666666"
     borderopacity="1.0"
     inkscape:pageopacity="0.0"
     inkscape:pageshadow="2"
     inkscape:zoom="1.4"
     inkscape:cx="344.386"
     inkscape:cy="397.65945"
     inkscape:document-units="mm"
     inkscape:current-layer="layer1"
     inkscape:document-rotation="0"
     showgrid="false"
     inkscape:snap-global="false"
     inkscape:window-width="1920"
     inkscape:window-height="1017"
     inkscape:window-x="-8"
     inkscape:window-y="-8"
     inkscape:window-maximized="1" />
  <metadata
     id="metadata5">
    <rdf:RDF>
      <cc:Work
         rdf:about="">
        <dc:format>image/svg+xml</dc:format>
        <dc:type
           rdf:resource="http://purl.org/dc/dcmitype/StillImage" />
        <dc:title></dc:title>
      </cc:Work>
    </rdf:RDF>
  </metadata>
  <g
     inkscape:label="Capa 1"
     inkscape:groupmode="layer"
     id="layer1">
    <path
       id="path833"
       style="fill:#008000;fill-opacity:0.702811;stroke:#009300;stroke-width:1.665;stroke-opacity:1"
       d="m 92.604171,104.13244 c 3e-6,8.97627 -7.276703,16.25298 -16.252976,16.25298 -8.976272,0 -16.252976,-7.27671 -16.252975,-16.25298 1e-6,-5.929339 2.619538,-15.372237 10.563627,-8.475149 -1.720589,-8.451296 2.642419,-7.777823 5.689348,-7.777823 8.97627,0 16.252975,7.276703 16.252976,16.252972 z"
       sodipodi:nodetypes="ssscss" />
    <path
       id="path833-1"
       style="fill:#ffffff;fill-opacity:0.30000001;stroke:#00ce00;stroke-width:0.357;stroke-miterlimit:4;stroke-dasharray:none;stroke-opacity:1"
       d="m 87.18825,105.74876 c 0,6.56137 -4.809611,11.8804 -10.742565,11.8804 -5.932953,0 -10.74256,-5.31903 -10.74256,-11.8804 10e-7,-4.33414 1.731409,-11.236592 6.982131,-6.195052 -1.13724,-6.17762 1.746532,-5.68533 3.760429,-5.68533 5.932952,0 10.742558,5.31903 10.742565,11.880382 z"
       sodipodi:nodetypes="ssscss" />
    <path
       id="path833-1-8"
       style="fill:#ffffff;fill-opacity:0.37666667;stroke:#00e800;stroke-width:0.211965;stroke-miterlimit:4;stroke-dasharray:none;stroke-opacity:1"
       d="m 81.829858,103.3067 c 0,3.67717 -3.025401,6.65813 -6.75742,6.65813 -3.732026,0 -6.75742,-2.98096 -6.75742,-6.65813 0,-2.42897 1.089106,-6.297282 4.391987,-3.471866 -0.715361,-3.462109 1.098624,-3.186214 2.365433,-3.186214 3.732019,0 6.757413,2.980932 6.75742,6.65808 z"
       sodipodi:nodetypes="ssscss" />
  </g>
</svg>
